<svg xmlns="http://www.w3.org/2000/svg" width="3779.528" height="3779.528" viewBox="0 0 1000 1000" xmlns:v="https://vecta.io/nano"><defs><filter  width="1" height="1" x="0" y="0" color-interpolation-filters="sRGB"><feComposite operator="arithmetic" in2="SourceGraphic" in="BackgroundImage" k1="0" k2="0" k3="0" k4="0"/></filter></defs><path d="M500 0a500 500 0 0 0-25.658.658A450 450 0 0 1 450 900 450 450 0 0 1 .658 474.342 500 500 0 0 0 500 1000 500 500 0 1 0 500 0z" fill="#ff312e"/><path d="M429.289 29.289c-220.914 0-400 179.086-400 400s179.086 400 400 400a400 400 0 0 0 20.527-.527C258.84 818.416 109.289 660.545 109.289 469.289c0-198.823 161.177-360 360-360 191.256 0 349.127 149.551 359.473 340.527a400 400 0 0 0 .527-20.527c0-220.914-179.086-400-400-400z" fill="#8884ff"/><g transform="matrix(3.680104 0 0 3.680104 280.63905 280.63906)" fill-rule="evenodd"><path d="M50 50V0l-8.75 34.845z" fill="#b2fb00"/><path d="M50 50V0l8.75 34.845z" fill="#f2c24b"/><path d="M50 50l8.75-15.155L93.302 25z" fill="#b2fb00"/><path d="M50 50l43.301-25L67.5 50z" fill="#f2c24b"/><path d="M50 50h17.5l25.801 25z" fill="#b2fb00"/><path d="M50 50l43.301 25-34.551-9.845z" fill="#f2c24b"/><path d="M50 50l8.75 15.155L50 100z" fill="#b2fb00"/><path d="M50 50v50l-8.75-34.845z" fill="#f2c24b"/><path d="M50 50l-8.75 15.155L6.699 75z" fill="#b2fb00"/><path d="M50 50L6.699 75 32.5 50z" fill="#f2c24b"/><path d="M50 50H32.5L6.699 25z" fill="#b2fb00"/><path d="M50 50L6.699 25l34.551 9.845z" fill="#f2c24b"/></g></svg>
