<svg xmlns="http://www.w3.org/2000/svg" width="3779.528" height="3779.528" viewBox="0 0 1000 1000" xmlns:v="https://vecta.io/nano"><defs><filter  width="1" height="1" x="0" y="0" color-interpolation-filters="sRGB"><feComposite operator="arithmetic" in2="SourceGraphic" in="BackgroundImage" k1="0" k2="0" k3="0" k4="0"/></filter></defs><path d="M500 0a500 500 0 0 0-25.658.658A450 450 0 0 1 450 900 450 450 0 0 1 .658 474.342 500 500 0 0 0 500 1000 500 500 0 1 0 500 0z" fill="#ff312e"/><path d="M429.289 29.289c-220.914 0-400 179.086-400 400s179.086 400 400 400a400 400 0 0 0 20.527-.527C258.84 818.416 109.289 660.545 109.289 469.289c0-198.823 161.177-360 360-360 191.256 0 349.127 149.551 359.473 340.527a400 400 0 0 0 .527-20.527c0-220.914-179.086-400-400-400z" fill="#8884ff"/><g transform="matrix(3.680104 0 0 3.680104 280.63905 280.63906)"><path d="M50 50V0L38.773 34.548z" fill="#c200fb"/><path d="M50 50V0l11.227 34.548z" fill="#f2c24b"/><path d="M50 50l11.227-15.452 36.326.001z" fill="#c200fb"/><path d="M50 50l47.553-15.451-29.388 21.353z" fill="#f2c24b"/><path d="M50 50l18.165 5.902 11.224 34.549z" fill="#c200fb"/><path d="M50 50l29.389 40.451L50 69.1z" fill="#f2c24b"/><path d="M50 50L20.611 90.451 50 69.1z" fill="#c200fb"/><path d="M50 50L20.611 90.451l11.224-34.549z" fill="#f2c24b"/><path d="M50 50L2.447 34.549l29.388 21.353z" fill="#c200fb"/><path d="M50 50L2.447 34.549l36.326-.001z" fill="#f2c24b"/></g></svg>