<svg xmlns="http://www.w3.org/2000/svg" width="1000" height="1000" xmlns:v="https://vecta.io/nano"><style><![CDATA[.B{fill-rule:evenodd}.C{clip-path:none}.D{stroke-width:37.26}.E{stroke-linejoin:round}]]></style><defs><mask maskUnits="userSpaceOnUse" id="A"><path d="M500 0a500 500 0 0 0-25.658.658A450 450 0 0 1 450 900 450 450 0 0 1 .658 474.342 500 500 0 0 0 500 1000 500 500 0 1 0 500 0z" fill="#fff" fill-opacity="1" stroke="none" stroke-opacity="1" paint-order="markers fill stroke" class="B C"/></mask><mask maskUnits="userSpaceOnUse" id="B"><path d="M429.289 829.289a400 400 0 0 0 20.527-.527 360 360 0 0 1 19.473-719.473 360 360 0 0 1 359.473 340.527A400 400 0 0 0 429.289 29.289a400 400 0 0 0 0 800z" fill="#fff" fill-opacity="1" stroke="none" stroke-dasharray="none" stroke-opacity="1" paint-order="markers fill stroke" class="B C D E"/></mask></defs><path d="M464.645 291.44l30.311 120.705 119.689-34.103-89.378 86.603 89.378 86.603-119.689-34.103-30.311 120.705-30.311-120.705-119.689 34.103 89.378-86.603-89.378-86.603 119.689 34.103z" fill="none" stroke="#282b08" stroke-miterlimit="4.5" class="D E"/><path d="M464.645 464.645V291.44l-30.311 120.705 30.311 52.5-150-86.603 89.378 86.603h60.622l-150 86.603 119.689-34.103 30.311-52.5V637.85l30.311-120.705-30.311-52.5 150 86.603-89.378-86.603h-60.622l150-86.603-119.689 34.103z" fill="#b2fb00"/><path d="M464.645 464.645V291.44l30.311 120.705-30.311 52.5 150-86.603-89.378 86.603h-60.622l150 86.603-119.689-34.103-30.311-52.5V637.85l-30.311-120.705 30.311-52.5-150 86.603 89.378-86.603h60.622l-150-86.603 119.689 34.103z" fill="#f2c24b"/><g mask="url(#A)" fill="#ff312e" class="C B D E"><path d="M500 0a500 500 0 0 0-25.658.658A450 450 0 0 1 450 900 450 450 0 0 1 .658 474.342 500 500 0 0 0 500 1000 500 500 0 1 0 500 0z" stroke="#330a09" paint-order="markers fill stroke"/></g><g mask="url(#B)" fill="#8884ff" class="C B D E"><path d="M429.289 829.289a400 400 0 0 0 20.527-.527 360 360 0 0 1 19.473-719.473 360 360 0 0 1 359.473 340.527A400 400 0 0 0 429.289 29.289a400 400 0 0 0 0 800z" stroke="#1b1a33" paint-order="markers fill stroke"/></g></svg>