<svg xmlns="http://www.w3.org/2000/svg" width="3779.528" height="3779.528" viewBox="0 0 1000 1000" xmlns:v="https://vecta.io/nano"><defs><filter  width="1" height="1" x="0" y="0" color-interpolation-filters="sRGB"><feComposite operator="arithmetic" in2="SourceGraphic" in="BackgroundImage" k1="0" k2="0" k3="0" k4="0"/></filter></defs><path d="M505.755 11.51c-8.458 0-16.916.217-25.363.651 235.972 12.783 420.759 207.851 420.759 444.17 0 245.668-199.153 444.82-444.82 444.82-236.318 0-431.387-184.786-444.17-420.759-.434 8.447-.651 16.904-.651 25.363C11.51 778.719 232.791 1000 505.755 1000S1000 778.719 1000 505.755 778.719 11.51 505.755 11.51z" fill="#ff312e" paint-order="markers fill stroke"/><path d="M427.742 29.289c-220.06 0-398.454 178.394-398.454 398.454s178.394 398.454 398.454 398.454c6.819 0 13.638-.175 20.448-.525-190.238-10.305-339.211-167.566-339.211-358.083 0-198.054 160.554-358.608 358.608-358.608 190.517 0 347.779 148.974 358.083 339.213.35-6.811.525-13.63.525-20.45 0-220.06-178.394-398.454-398.454-398.454z" fill="#8884ff"/><path d="M464.644 464.645V291.44l30.311 120.705-30.311 52.5 150-86.602-89.378 86.602h-60.622l150 86.602-119.689-34.102-30.311-52.5v173.205l-30.311-120.705 30.311-52.5-150 86.602 89.378-86.602h60.622l-150-86.602 119.689 34.102z" fill="#f2c24b"/><path d="M464.644 464.645V291.44l-30.311 120.705 30.311 52.5 150-86.602-119.689 34.102-30.311 52.5 150 86.602-89.378-86.602h-60.622v173.205l30.311-120.705-30.311-52.5-150 86.602 119.689-34.102 30.311-52.5-150-86.602 89.378 86.602z" fill="#b2fb00"/></svg>