<svg xmlns="http://www.w3.org/2000/svg" width="3968.504" height="3968.504" viewBox="0 0 1050 1050" xmlns:v="https://vecta.io/nano"><defs><filter id="A" width="1.026" height="1.026" x="-.013" y="-.013" color-interpolation-filters="sRGB"><feComposite operator="arithmetic" in2="SourceGraphic" in="BackgroundImage" k1="0" k2="0" k3="0" k4="0"/></filter></defs><g transform="translate(-475 25)"><g stroke="#000"><g transform="translate(500)" stroke-width="18.63"><path d="M500 0a500 500 0 0 0-25.658.658A450 450 0 0 1 450 900 450 450 0 0 1 .658 474.342 500 500 0 0 0 500 1000 500 500 0 1 0 500 0z" fill="#ff312e"/><circle cx="690.303" cy="544.848" r="450" transform="translate(-240.303 -94.848)" fill="none" filter="url(#A)"/></g><g transform="translate(558.578 58.578)" stroke-width="18.63"><path d="M370.711-29.289c-220.914 0-400 179.086-400 400s179.086 400 400 400a400 400 0 0 0 20.527-.527C200.262 759.838 50.711 601.967 50.711 410.711c0-198.823 161.177-360 360-360 191.257 0 349.128 149.552 359.473 340.529a400 400 0 0 0 .527-20.529c0-220.914-179.086-400-400-400z" fill="#8884ff"/><circle cx="690.303" cy="544.848" transform="rotate(180 550.507 477.779)" r="360" fill="none" filter="url(#A)"/></g></g><g paint-order="markers fill stroke"><path d="M964.644 291.44l30.311 120.705 119.689-34.102-89.378 86.602 89.378 86.602-119.689-34.102-30.311 120.705-30.311-120.705-119.689 34.102 89.378-86.602-89.378-86.602 119.689 34.102z" fill="none" stroke="#000" stroke-width="37.268" stroke-linejoin="round"/><path d="M964.644 464.645V291.44l30.311 120.705-30.311 52.5 150-86.602-89.378 86.602h-60.622l150 86.602-119.689-34.102-30.311-52.5v173.205l-30.311-120.705 30.311-52.5-150 86.602 89.378-86.602h60.622l-150-86.602 119.689 34.102z" fill="#f2c24b"/><path d="M964.644 464.645V291.44l-30.311 120.705 30.311 52.5 150-86.602-119.689 34.102-30.311 52.5 150 86.602-89.378-86.602h-60.622v173.205l30.311-120.705-30.311-52.5-150 86.602 119.689-34.102 30.311-52.5-150-86.602 89.378 86.602z" fill="#b2fb00"/></g></g></svg>