<svg xmlns="http://www.w3.org/2000/svg" width="3779.528" height="3779.528" viewBox="0 0 1000 1000" xmlns:v="https://vecta.io/nano"><defs><filter  width="1" height="1" x="0" y="0" color-interpolation-filters="sRGB"><feComposite operator="arithmetic" in2="SourceGraphic" in="BackgroundImage" k1="0" k2="0" k3="0" k4="0"/></filter></defs><path d="M500 0a500 500 0 0 0-25.658.658A450 450 0 0 1 450 900 450 450 0 0 1 .658 474.342 500 500 0 0 0 500 1000 500 500 0 1 0 500 0z" fill="#ff312e"/><path d="M429.288 29.289c-220.914 0-400 179.086-400 400s179.086 400 400 400a400 400 0 0 0 20.527-.527C258.84 818.416 109.288 660.545 109.288 469.289c0-198.823 161.177-360 360-360 191.257 0 349.128 149.552 359.473 340.529a400 400 0 0 0 .527-20.529c0-220.914-179.086-400-400-400z" fill="#8884ff"/><path d="M464.644 464.645V291.44l30.311 120.705-30.311 52.5 150-86.602-89.378 86.602h-60.622l150 86.602-119.689-34.102-30.311-52.5v173.205l-30.311-120.705 30.311-52.5-150 86.602 89.378-86.602h60.622l-150-86.602 119.689 34.102z" fill="#f2c24b"/><path d="M464.644 464.645V291.44l-30.311 120.705 30.311 52.5 150-86.602-119.689 34.102-30.311 52.5 150 86.602-89.378-86.602h-60.622v173.205l30.311-120.705-30.311-52.5-150 86.602 119.689-34.102 30.311-52.5-150-86.602 89.378 86.602z" fill="#b2fb00"/></svg>