<?xml version="1.0" encoding="UTF-8" standalone="no"?>
<!-- Created with Inkscape (http://www.inkscape.org/) -->

<svg
   width="512"
   height="512"
   viewBox="0 0 512 512.00001"
   version="1.1"
   id="svg1"
   xmlns="http://www.w3.org/2000/svg"
   xmlns:svg="http://www.w3.org/2000/svg">
  <defs
     id="defs1" />
  <g
     id="layer1"
     transform="translate(-280.7969,-396.55069)">
    <path
       d="m 323.16932,844.99206 c -34.42758,45.02068 -42.37242,63.55863 -42.37242,63.55863 0,0 18.53794,-7.94484 63.55863,-42.37242 z"
       id="tip" />
    <path
       id="shaft"
       d="m 482.06586,686.09552 21.18621,21.18621 -158.89654,158.89654 -21.18621,-21.18621 z" />
    <path
       id="base"
       d="m 496.19001,587.22655 105.93102,105.93103 c 0,0 52.96552,52.96552 -3.53103,109.46207 L 386.72794,590.75758 c 56.49655,-56.49655 109.46207,-3.53103 109.46207,-3.53103 z" />
    <path
       id="pole"
       d="M 639.1969,475.99896 713.34862,550.15069 602.12103,693.15758 496.19001,587.22655 Z" />
    <path
       id="cap"
       d="M 644.49345,396.55069 792.7969,544.85414 c -42.37241,42.3724 -79.44827,5.29655 -79.44827,5.29655 L 639.1969,475.99896 c 0,0 -37.07587,-37.07586 5.29655,-79.44827 z" />
  </g>
</svg>
