<svg xmlns="http://www.w3.org/2000/svg" viewBox="0 0 512 512" xmlns:v="https://vecta.io/nano"><path d="M42.372 448.441C7.945 493.462 0 512 0 512s18.538-7.945 63.559-42.372z"/><path d="M201.269 289.545l21.186 21.186L63.559 469.627l-21.186-21.186z"/><path d="M215.393 190.676l105.931 105.931s52.966 52.966-3.531 109.462L105.931 194.207c56.497-56.497 109.462-3.531 109.462-3.531z"/><path d="M358.4 79.448l74.152 74.152-111.228 143.007-105.931-105.931z"/><path d="M363.696 0L512 148.303c-42.372 42.372-79.448 5.297-79.448 5.297L358.4 79.448S321.324 42.372 363.696 0z"/></svg>
